# xmcd
#
# Track frame offsets: 
#        150
#        29100
#        54597
#        77627
#        110612
#        134045
#        164417
#        184942
#        199287
#        214487
#        231780
#        254182
#        301857
#
# Disc length: 4394 seconds
#
# Revision: 4
# Processed by: cddbd v1.5.2PL0 Copyright (c) Steve Scherf et al.
# Submitted via: ExactAudioCopy v1.3
#
DISCID=cd11280d
DTITLE=Blues Company - Keepin' The Blues Alive
DYEAR=2004
DGENRE=Blues
TTITLE0=It's Nice  [Live in Halle]
TTITLE1=J. J.'s Jump  [Live in Halle]
TTITLE2=Blue and Lonesome  [Live in Halle]
TTITLE3=Over The City  [Live in Halle]
TTITLE4=21st Century Blues  [Live in Halle]
TTITLE5=Blues Is A Feeling  [Live in Halle]
TTITLE6=Wait A Minute  [Live in Halle]
TTITLE7=Havin' A Ball  [Live in Halle]
TTITLE8=Jet Set Shuffle  [Live in Halle]
TTITLE9=Hey Little Girl  [Live in Halle]
TTITLE10=Same Old Feeling  [Live in Lahnstein]
TTITLE11=Listen What I Say  [Live in Lahnstein]
TTITLE12=Red Blood  [Live in Lahnstein]
EXTD=
EXTT0=
EXTT1=
EXTT2=
EXTT3=
EXTT4=
EXTT5=
EXTT6=
EXTT7=
EXTT8=
EXTT9=
EXTT10=
EXTT11=
EXTT12=
PLAYORDER=
